<svg xmlns="http://www.w3.org/2000/svg" style="display: none;">
  
    <symbol id="mellow-imac" viewBox="0 0 512 512">
      <path d="m483 51l-454 0c-16 0-29 13-29 29l0 272c0 16 13 29 29 29l153 0l0 26l-43 43c-1 2-2 4-1 6c1 3 3 5 6 5l218 0c2 0 4-2 5-5c1-2 1-4-1-6l-43-43l0-26l160 0c16 0 29-13 29-29l0-272c0-16-13-29-29-29z m-169 362c0 0 0 0 0 1l35 35l-193 0l35-35c1 0 1-1 1-1l122 0z m-2-4l-119 0l0-28l119 0z m188-57c0 10-7 18-17 18l-454 0c-10 0-17-8-17-18l0-272c0-9 7-17 17-17l454 0c10 0 17 8 17 17z m-469-37l449 0l0-219l-449 0z m12-208l318 0l86 87l6-6l-80-81l22 0l0 0l57 58l6-6l-51-52l18 0l30 30l6-6l-23-24l30 0l0 196l-425 0z m216-27c0 2-2 4-5 4c-2 0-5-2-5-4c0-3 3-5 5-5c3 0 5 2 5 5z m11 262c0 9-7 16-16 16c-9 0-16-7-16-16c0-9 7-16 16-16c9 0 16 7 16 16z m-97 98l162 0l0 4l-162 0z m12-10l136 0l0 4l-136 0z m9-11l117 0l0 5l-117 0z"/>
    </symbol>
  
    <symbol id="mellow-iphone" viewBox="0 0 512 512">
      <path d="m357 0l-202 0c-28 0-50 22-50 50l0 412c0 28 22 50 50 50l202 0c28 0 50-22 50-50l0-412c0-28-22-50-50-50z m36 462c0 20-16 36-36 36l-202 0c-20 0-36-16-36-36l0-412c0-20 16-36 36-36l202 0c20 0 36 16 36 36z m-254-69l233 0l0-306l-233 0z m14-292l93 0l95 96l7-7l-89-89l19 0l61 62l7-7l-55-55l20 0l28 28l7-7l-21-21l33 0l0 278l-205 0z m117-48c0 7-6 13-13 13c-7 0-12-6-12-13c0-7 5-13 12-13c7 0 13 6 13 13z m-12 358c-19 0-35 16-35 36c0 19 16 35 35 35c20 0 35-16 35-35c0-20-15-36-35-36z m0 57c-12 0-21-10-21-21c0-12 9-21 21-21c12 0 21 9 21 21c0 11-9 21-21 21z"/>
    </symbol>
  
    <symbol id="mellow-settings" viewBox="0 0 512 512">
      <path d="m486 203l-49-10c-2-7-5-14-8-21l27-41c9-13 7-30-4-41l-30-30c-7-7-15-10-23-10c-6 0-12 2-18 6l-41 27c-7-3-14-6-21-8l-10-49c-3-15-16-26-31-26l-44 0c-15 0-28 11-31 26l-10 49c-7 2-14 5-21 8l-41-27c-6-4-12-6-18-6c-8 0-16 3-23 10l-30 30c-11 11-13 28-4 41l27 41c-3 7-6 14-8 21l-49 10c-15 3-26 16-26 31l0 44c0 15 11 28 26 31l49 10c2 7 5 14 8 21l-27 41c-9 13-7 30 4 41l30 30c7 7 15 10 23 10c6 0 12-2 18-6l41-27c7 3 14 6 21 8l10 49c3 15 16 26 31 26l44 0c15 0 28-11 31-26l10-49c7-2 14-5 21-8l41 27c6 4 12 6 18 6c8 0 16-3 23-10l30-30c11-11 13-28 4-41l-27-41c3-7 6-14 8-21l49-10c15-3 26-16 26-31l0-44c0-15-11-28-26-31z m-55 85c-11 2-20 10-24 20c-2 6-4 12-7 18c-5 10-4 22 2 31l28 42l-31 31l-42-28c-5-4-11-5-17-5c-5 0-10 1-14 3c-6 3-12 5-18 7c-10 4-18 13-20 24l-10 49l-44 0l-10-49c-2-11-10-20-20-24c-6-2-12-4-18-7c-4-2-9-3-14-3c-6 0-12 1-17 5l-42 28l-31-31l28-42c6-9 7-21 2-31c-3-6-5-12-7-18c-4-10-13-18-24-20l-49-10l0-44l49-10c11-2 20-10 24-20c2-6 4-12 7-18c5-10 4-22-2-31l-28-42l31-31l42 28c5 4 11 5 17 5c5 0 10-1 14-3c6-2 12-5 18-7c10-4 18-13 20-24l10-49l44 0l10 49c2 11 10 20 20 24c6 2 12 4 18 7c4 2 9 3 14 3c6 0 12-1 17-5l42-28l31 31l-28 42c-6 9-7 21-2 31c2 6 5 12 7 18c4 10 13 18 24 20l49 10l0 44z m-175-144c-62 0-112 50-112 112c0 62 50 112 112 112c62 0 112-50 112-112c0-62-50-112-112-112z m0 210c-54 0-98-44-98-98c0-54 44-98 98-98c54 0 98 44 98 98c0 54-44 98-98 98z m0-162c-35 0-64 29-64 64c0 35 29 64 64 64c35 0 64-29 64-64c0-35-29-64-64-64z m0 112c-26 0-48-21-48-48c0-26 22-48 48-48c26 0 48 22 48 48c0 27-22 48-48 48z"/>
    </symbol>
  
</svg>
